<svg width="3617" height="1019" viewBox="0 0 3617 1019" fill="none" xmlns="http://www.w3.org/2000/svg">
<path d="M192.321 0.5H3426.79C3466.86 0.5 3496.87 0.500488 3520.05 2.60431C3543.22 4.70801 3559.48 8.91048 3572.07 17.2674C3594.16 31.9298 3609.56 54.7268 3614.92 80.6926C3617.97 95.4921 3615.8 112.148 3609.1 134.431C3602.41 156.716 3591.2 184.563 3576.25 221.734L3296.29 917.534C3281.56 954.145 3274.23 972.327 3262.05 985.693C3251.28 997.517 3237.83 1006.6 3222.84 1012.18C3205.89 1018.49 3186.29 1018.5 3146.83 1018.5H483.546C444.635 1018.5 425.307 1018.49 408.536 1012.33C393.698 1006.87 380.355 997.992 369.594 986.41C357.431 973.32 349.962 955.494 334.938 919.6L43.7128 223.8C28.0393 186.352 16.2977 158.298 9.21014 135.84C2.12287 113.382 -0.287632 96.5879 2.6439 81.6483C7.78618 55.4424 23.1473 32.3607 45.3358 17.4992C57.9851 9.02695 74.4081 4.76626 97.8603 2.63342C121.313 0.50049 151.726 0.5 192.321 0.5Z" fill="url(#paint0_radial_597_13)" stroke="#AB843E"/>
<defs>
<radialGradient id="paint0_radial_597_13" cx="0" cy="0" r="1" gradientUnits="userSpaceOnUse" gradientTransform="translate(1808 589.5) rotate(58.0817) scale(1986.92 4888.3)">
<stop stop-color="#D2BF9C"/>
<stop offset="0.677885" stop-color="#DFA02E"/>
</radialGradient>
</defs>
</svg>
